<?xml version="1.0" encoding="UTF-8" standalone="no"?>
<!DOCTYPE svg PUBLIC "-//W3C//DTD SVG 1.1//EN" "http://www.w3.org/Graphics/SVG/1.1/DTD/svg11.dtd">
<svg version="1.1" xmlns="http://www.w3.org/2000/svg" xmlns:xlink="http://www.w3.org/1999/xlink" preserveAspectRatio="xMidYMid meet" viewBox="0 0 640 640" width="640" height="640"><defs><path d="M40 327.13C40 454 120.25 561.5 231.5 599.5C233.25 599.88 234.75 600 236.25 600C246.63 600 250.63 592.38 250.63 585.75C250.63 578.88 250.38 560.88 250.25 536.88C239.75 539.25 230.37 540.25 222 540.25C168.13 540.25 155.88 498.38 155.88 498.38C143.12 465.25 124.75 456.37 124.75 456.37C100.37 439.25 124.62 438.75 126.5 438.75C126.51 438.75 126.61 438.75 126.62 438.75C154.75 441.25 169.5 468.5 169.5 468.5C183.5 493 202.25 499.88 219 499.88C232.12 499.88 244 495.63 251 492.38C253.5 473.87 260.75 461.25 268.75 454C206.62 446.75 141.25 422.13 141.25 312.13C141.25 280.75 152.12 255.13 170 235.13C167.12 227.87 157.5 198.63 172.75 159.13C172.75 159.13 174.75 158.5 179 158.5C189.12 158.5 212 162.38 249.75 188.63C272.12 182.25 296 179.13 319.87 179C343.62 179.13 367.62 182.25 390 188.63C427.75 162.38 450.62 158.5 460.75 158.5C465 158.5 467 159.13 467 159.13C482.25 198.63 472.62 227.88 469.75 235.13C487.62 255.25 498.5 280.88 498.5 312.13C498.5 422.38 433 446.63 370.62 453.75C380.62 462.63 389.62 480.13 389.62 506.88C389.62 545.25 389.25 576.25 389.25 585.63C389.25 592.38 393.12 600 403.5 600C405 600 406.75 599.88 408.5 599.5C519.88 561.5 600 453.88 600 327.13C600 168.63 474.63 40 320 40C165.38 40 40 168.63 40 327.13Z" id="a3DyvhCWbI"></path></defs><g><g><g><use xlink:href="#a3DyvhCWbI" opacity="1" fill="#000000" fill-opacity="0.37"></use><g><use xlink:href="#a3DyvhCWbI" opacity="1" fill-opacity="0" stroke="#000000" stroke-width="1" stroke-opacity="0"></use></g></g></g></g></svg>